
<svg width="48" height="48" viewBox="0 0 48 48" fill="none" xmlns="http://www.w3.org/2000/svg">
<path fill-rule="evenodd" clip-rule="evenodd" d="M7 43V16.8205H18.931C19.4833 16.8205 19.931 16.3728 19.931 15.8205V4H36C36.5523 4 37 4.44772 37 5V24.6828C35.7489 24.2406 34.4025 24 33 24C26.3726 24 21 29.3726 21 36C21 39.0734 22.1554 41.877 24.0556 44H8C7.44772 44 7 43.5523 7 43Z" fill="black"/>
<path d="M7 15L18 4V14C18 14.5523 17.5523 15 17 15H7Z" fill="black"/>
<path fill-rule="evenodd" clip-rule="evenodd" d="M27 36C27 32.6863 29.6863 30 33 30C36.3137 30 39 32.6863 39 36C39 36.5163 38.8361 36.7574 38.7078 36.8724C38.5645 37.0007 38.3417 37.0819 38.0624 37.0644C37.4697 37.0274 37 36.6098 37 36C37 33.7909 35.2091 32 33 32C30.7909 32 29 33.7909 29 36C29 38.2091 30.7909 40 33 40C34.3025 40 35.4596 39.3775 36.1899 38.4137C36.7082 38.8023 37.3342 39.0228 37.9376 39.0606C38.6583 39.1056 39.4355 38.9056 40.0422 38.362C40.6639 37.8051 41 36.9837 41 36C41 31.5817 37.4183 28 33 28C28.5817 28 25 31.5817 25 36C25 40.4183 28.5817 44 33 44C35.0483 44 36.9189 43.2289 38.3336 41.9627C38.7451 41.5944 38.7801 40.9622 38.4118 40.5507C38.0435 40.1391 37.4113 40.1041 36.9998 40.4724C35.9376 41.4231 34.5373 42 33 42C29.6863 42 27 39.3137 27 36ZM35 36C35 34.8954 34.1046 34 33 34C31.8954 34 31 34.8954 31 36C31 37.1046 31.8954 38 33 38C34.1046 38 35 37.1046 35 36Z" fill="black"/>
</svg>
