
<svg width="48" height="48" viewBox="0 0 48 48" fill="none" xmlns="http://www.w3.org/2000/svg">
<path fill-rule="evenodd" clip-rule="evenodd" d="M24 46C11.8497 46 2 36.1503 2 24C2 11.8497 11.8497 2 24 2C36.1503 2 46 11.8497 46 24C46 36.1503 36.1503 46 24 46ZM29.2929 11.2929C29.6834 10.9024 30.3166 10.9024 30.7071 11.2929C31.0976 11.6834 31.0976 12.3166 30.7071 12.7071L19.4142 24L30.7071 35.2929C31.0976 35.6834 31.0976 36.3166 30.7071 36.7071C30.3166 37.0976 29.6834 37.0976 29.2929 36.7071L17.2929 24.7071C16.9024 24.3166 16.9024 23.6834 17.2929 23.2929L29.2929 11.2929Z" fill="black"/>
</svg>
