
<svg width="48" height="48" viewBox="0 0 48 48" fill="none" xmlns="http://www.w3.org/2000/svg">
<path fill-rule="evenodd" clip-rule="evenodd" d="M24 46C36.1503 46 46 36.1503 46 24C46 11.8497 36.1503 2 24 2C11.8497 2 2 11.8497 2 24C2 36.1503 11.8497 46 24 46ZM15.2727 14C13.4653 14 12 15.4653 12 17.2727V30.9091C12 32.7166 13.4653 34.1818 15.2727 34.1818H32.7273C34.5348 34.1818 36 32.7166 36 30.9091V17.2727C36 15.4653 34.5348 14 32.7273 14H15.2727ZM15.824 16.1818L23.2306 22.7655C23.6534 23.1413 24.2932 23.1316 24.7044 22.7433L31.6519 16.1818H15.824ZM33.8107 17.144L26.2025 24.3295C24.9689 25.4946 23.0494 25.5236 21.7811 24.3962L14.1818 17.6413V30.9091C14.1818 31.5116 14.6702 32 15.2727 32H32.7273C33.3298 32 33.8182 31.5116 33.8182 30.9091V17.2727C33.8182 17.2292 33.8156 17.1862 33.8107 17.144Z" fill="black"/>
</svg>
