
<svg width="20" height="15" viewBox="0 0 48 48" fill="none" xmlns="http://www.w3.org/2000/svg">
<path fill-rule="evenodd" clip-rule="evenodd" d="M24 46C36.1503 46 46 36.1503 46 24C46 11.8497 36.1503 2 24 2C11.8497 2 2 11.8497 2 24C2 36.1503 11.8497 46 24 46ZM18.7071 11.2929C18.3166 10.9024 17.6834 10.9024 17.2929 11.2929C16.9024 11.6834 16.9024 12.3166 17.2929 12.7071L28.5858 24L17.2929 35.2929C16.9024 35.6834 16.9024 36.3166 17.2929 36.7071C17.6834 37.0976 18.3166 37.0976 18.7071 36.7071L30.7071 24.7071C31.0976 24.3166 31.0976 23.6834 30.7071 23.2929L18.7071 11.2929Z" fill="black"/>
</svg>
